# xmcd
#
# Track frame offsets: 
#        150
#        13832
#        27487
#        40240
#        55825
#        68665
#        80050
#        93630
#        108190
#        122725
#        136515
#        157240
#        172840
#        186340
#        199637
#        213930
#        228020
#        254367
#        267165
#        280455
#        294797
#        309892
#        322310
#
# Disc length: 4524 seconds
#
# Revision: 0
# Processed by: cddbd v1.5.2PL0 Copyright (c) Steve Scherf et al.
# Submitted via: ExactAudioCopyFreeDBPlugin 1.0
#
DISCID=4511aa17
DTITLE=Various Artist - Robert Johnson Classics -Hellhound On My Trail-
DYEAR=1992
DGENRE=Blues
TTITLE0=Hambone Willie Newbern - Roll And Tumble Blues
TTITLE1=Rosetta Howard - Delta Bound
TTITLE2=Robert Lee McCoy - Friars Point Blues
TTITLE3=Son House - Shetland Pony Blues
TTITLE4=Roosevelt Sykes - West Helena Blues
TTITLE5=Scrapper Blackwell - Rambling Blues
TTITLE6=Mr. Freddie - Mr. Fredie's Kokomo Blues
TTITLE7=Son House - My Black Mama - Pt.2
TTITLE8=Floyd Jones - Dark Road
TTITLE9=Kokomo Arnold - Sagefield Woman Blues
TTITLE10=Jimmie Rodgers - Boots And The Buddies - Blue Yodel #4 Boots 
TTITLE10=How Long Blues - Pt.1
TTITLE11=Willie Brown - Make Me A Pallet On The Floor
TTITLE12=Robert Jr. Lockwood - Black Spider Blues
TTITLE13=Muddy Waters - Take A Walk With Me
TTITLE14=Oscar Woods - Evil Hearted Woman Blues
TTITLE15=Johnnie Temple - What Is That Smells Like Gravy
TTITLE16=Rev. A.W. Nix - Black Diamond Express To Hell - Pt.1&2
TTITLE17=Skip James - 22-20 Blues
TTITLE18=Leroy Carr - When The Sun Goes Down
TTITLE19=Johnnie Temple - Evil Devil Blues
TTITLE20=Peetie Wheatstraw - Six Weeks Old Blues
TTITLE21=Cousin Leroy - Crossroads
TTITLE22=Kansas City Six - Paiging The Devil
EXTD=
EXTT0=
EXTT1=
EXTT2=
EXTT3=
EXTT4=
EXTT5=
EXTT6=
EXTT7=
EXTT8=
EXTT9=
EXTT10=
EXTT11=
EXTT12=
EXTT13=
EXTT14=
EXTT15=
EXTT16=
EXTT17=
EXTT18=
EXTT19=
EXTT20=
EXTT21=
EXTT22=
PLAYORDER=
